700 0 1 0           
11 SatConsumer 24 ASM 219.0.0.4610 Unknown 24 Fri May  5 11:11:24 2017 
10 9.999999999999999547e-07 1.000000000000000036e-10 
body $1 -1 $-1 $2 $-1 $3 #
rgb_color-st-attrib $-1 -1 $-1 $-1 $0 0.9529411764705881804 0.9529411764705881804 0.9529411764705881804 #
lump $-1 -1 $-1 $-1 $4 $0 #
transform $-1 -1 1 0 0 0 1 0 0 0 1 0 0 0 1 no_rotate no_reflect no_shear #
shell $-1 -1 $-1 $-1 $-1 $5 $-1 $2 #
face $-1 -1 $-1 $6 $7 $4 $-1 $8 forward single #
face $-1 -1 $-1 $9 $10 $4 $-1 $11 forward single #
loop $-1 -1 $-1 $-1 $12 $5 #
plane-surface $-1 -1 $-1 -11.75236572265625057 9.498589515686035156 0.3649999999999999356 0.7071067811865547892 0 -0.7071067811865403563 -0.7071067811865403563 0 -0.7071067811865547892 forward_v I I I I #
face $-1 -1 $-1 $13 $14 $4 $-1 $15 forward single #
loop $-1 -1 $-1 $-1 $16 $6 #
plane-surface $-1 -1 $-1 -11.22236572265624943 9.498589515686035156 0.6350000000000000089 -0.7071067811865553443 0 0.7071067811865396902 0.7071067811865396902 0 0.7071067811865553443 forward_v I I I I #
coedge $-1 -1 $-1 $17 $18 $19 $20 forward $7 $-1 #
face $-1 -1 $-1 $21 $22 $4 $-1 $23 forward single #
loop $-1 -1 $-1 $-1 $24 $9 #
plane-surface $-1 -1 $-1 -11.75217822429804571 8.435069260002235225 0.4999999999999998335 0.6489921737106121302 -0.7607950830955565458 0 0 0 -1 forward_v I I I I #
coedge $-1 -1 $-1 $25 $26 $27 $28 forward $10 $-1 #
coedge $-1 -1 $-1 $29 $12 $30 $31 reversed $7 $-1 #
coedge $-1 -1 $-1 $12 $32 $33 $34 forward $7 $-1 #
coedge $-1 -1 $-1 $35 $36 $12 $20 reversed $37 $-1 #
edge $-1 -1 $-1 $38 -1.076092469834934562 $39 -0.462184643500876291 $19 $40 forward @7 unknown #
face $-1 -1 $-1 $41 $42 $4 $-1 $43 forward single #
loop $-1 -1 $-1 $-1 $44 $13 #
plane-surface $-1 -1 $-1 -11.20825039370219223 8.887623190090213399 0.9199999999999997069 -0.4717827252642496361 -0.603299977264204812 0.6430009312397980681 0.8062562532659889314 0 0.5915664409594997286 forward_v I I I I #
coedge $-1 -1 $-1 $45 $46 $47 $48 forward $14 $-1 #
coedge $-1 -1 $-1 $49 $16 $50 $51 forward $10 $-1 #
coedge $-1 -1 $-1 $16 $52 $53 $54 forward $10 $-1 #
coedge $-1 -1 $-1 $55 $56 $16 $28 reversed $57 $-1 #
edge $-1 -1 $-1 $58 -1.071601015873971718 $59 -0.6107339216529492631 $27 $60 forward @7 unknown #
coedge $-1 -1 $-1 $32 $17 $61 $62 forward $7 $-1 #
coedge $-1 -1 $-1 $63 $64 $17 $31 forward $65 $-1 #
edge $-1 -1 $-1 $66 1.810449496454084928 $39 1.841454516195936586 $17 $67 forward @7 unknown #
coedge $-1 -1 $-1 $18 $29 $46 $68 forward $7 $-1 #
coedge $-1 -1 $-1 $69 $70 $18 $34 reversed $71 $-1 #
edge $-1 -1 $-1 $72 1.738449819637270632 $38 1.738687530232375211 $33 $73 forward @7 unknown #
coedge $-1 -1 $-1 $74 $19 $70 $75 forward $37 $-1 #
coedge $-1 -1 $-1 $19 $74 $63 $76 forward $37 $-1 #
loop $-1 -1 $-1 $-1 $19 $77 #
vertex $-1 -1 $-1 $75 $78 #
vertex $-1 -1 $-1 $76 $79 #
straight-curve $-1 -1 $-1 -11.76736572265624936 9.498589515686035156 0.3499999999999999778 0 1 0 F -1.173885530437669189 F 2.134411484313963214 #
face $-1 -1 $-1 $80 $81 $4 $-1 $82 forward single #
loop $-1 -1 $-1 $-1 $83 $21 #
plane-surface $-1 -1 $-1 -11.75236572265625057 9.498589515686035156 0.6350000000000000089 0.7071067811865553443 0 0.7071067811865396902 0.7071067811865396902 0 -0.7071067811865553443 forward_v I I I I #
coedge $-1 -1 $-1 $84 $85 $86 $87 reversed $22 $-1 #
coedge $-1 -1 $-1 $88 $24 $89 $90 forward $14 $-1 #
coedge $-1 -1 $-1 $24 $88 $32 $68 reversed $14 $-1 #
coedge $-1 -1 $-1 $61 $91 $24 $48 reversed $92 $-1 #
edge $-1 -1 $-1 $93 -0.1199999999999998845 $94 0.1200000000000001066 $47 $95 forward @7 unknown #
coedge $-1 -1 $-1 $96 $25 $97 $98 forward $10 $-1 #
coedge $-1 -1 $-1 $99 $100 $25 $51 reversed $101 $-1 #
edge $-1 -1 $-1 $59 1.313502299476441815 $102 1.314297680516630429 $25 $103 forward @7 unknown #
coedge $-1 -1 $-1 $26 $96 $104 $105 forward $10 $-1 #
coedge $-1 -1 $-1 $106 $107 $26 $54 reversed $71 $-1 #
edge $-1 -1 $-1 $108 -1.387153417021850244 $58 -1.386864560298787241 $53 $109 forward @7 unknown #
coedge $-1 -1 $-1 $110 $27 $107 $111 forward $57 $-1 #
coedge $-1 -1 $-1 $27 $110 $99 $112 forward $57 $-1 #
loop $-1 -1 $-1 $-1 $110 $113 #
vertex $-1 -1 $-1 $111 $114 #
vertex $-1 -1 $-1 $112 $115 #
straight-curve $-1 -1 $-1 -11.20736572265625064 9.498589515686035156 0.6499999999999999112 0 1 0 F -1.169888091038707501 F 2.134411484313963214 #
coedge $-1 -1 $-1 $116 $47 $29 $62 reversed $92 $-1 #
edge $-1 -1 $-1 $66 0.4700098745976006853 $93 1.050884530437670605 $61 $117 forward @7 unknown #
coedge $-1 -1 $-1 $118 $30 $36 $76 reversed $65 $-1 #
coedge $-1 -1 $-1 $30 $119 $116 $120 forward $65 $-1 #
loop $-1 -1 $-1 $-1 $119 $121 #
vertex $-1 -1 $-1 $120 $122 #
ellipse-curve $-1 -1 $-1 -11.5 10 0.6173657226562556666 0.7071067811865547892 0 -0.7071067811865403563 1 0 1.000000000000020428 0.7071067811865403563 I I #
edge $-1 -1 $-1 $93 -0 $72 0.04892778197597431877 $32 $123 forward @7 unknown #
coedge $-1 -1 $-1 $124 $33 $88 $125 reversed $71 $-1 #
coedge $-1 -1 $-1 $33 $126 $35 $75 reversed $71 $-1 #
loop $-1 -1 $-1 $-1 $33 $127 #
vertex $-1 -1 $-1 $34 $128 #
ellipse-curve $-1 -1 $-1 -11.5 10 0.6173657226562556666 0.7071067811865547892 0 -0.7071067811865403563 1.600000000000000089 0 1.600000000000032951 0.7071067811865403563 I I #
coedge $-1 -1 $-1 $36 $35 $129 $130 reversed $37 $-1 #
edge $-1 -1 $-1 $38 -4.544497776947211243 $131 1.386864560298787463 $35 $132 forward @7 unknown #
edge $-1 -1 $-1 $133 -1.273815772401851287 $39 4.441730790983649868 $63 $134 forward @7 unknown #
face $-1 -1 $-1 $135 $37 $4 $-1 $136 forward single #
point $-1 -1 $-1 -11.76736572265624936 8.422497045851100594 0.3499999999999999778 #
point $-1 -1 $-1 -11.76736572265624936 9.036404872185158865 0.3499999999999999223 #
face $-1 -1 $-1 $137 $138 $4 $-1 $139 forward single #
loop $-1 -1 $-1 $-1 $140 $41 #
plane-surface $-1 -1 $-1 -11.76663645786296364 8.881337852907190467 0.9199999999999997069 0.4824382432420953326 -0.6028184047103881671 0.6355024094367413001 0.7964902854679286603 0 -0.6046513252736801514 forward_v I I I I #
coedge $-1 -1 $-1 $141 $89 $91 $142 forward $42 $-1 #
coedge $-1 -1 $-1 $85 $44 $143 $144 reversed $22 $-1 #
coedge $-1 -1 $-1 $44 $84 $145 $146 reversed $22 $-1 #
coedge $-1 -1 $-1 $147 $148 $44 $87 forward $149 $-1 #
edge $-1 -1 $-1 $150 0 $151 0.03696075540268269066 $86 $152 forward @7 unknown #
coedge $-1 -1 $-1 $46 $45 $69 $125 forward $14 $-1 #
coedge $-1 -1 $-1 $83 $153 $45 $90 reversed $42 $-1 #
edge $-1 -1 $-1 $94 0 $154 0.04892778197597436041 $45 $155 forward @7 unknown #
coedge $-1 -1 $-1 $47 $156 $83 $142 reversed $92 $-1 #
loop $-1 -1 $-1 $-1 $116 $157 #
vertex $-1 -1 $-1 $62 $158 #
vertex $-1 -1 $-1 $48 $159 #
straight-curve $-1 -1 $-1 -11.73736572265625 8.447704985248364551 0.4999999999999998335 0 0 1 F -0.2294565394039920769 F 0.4781949010788357768 #
coedge $-1 -1 $-1 $52 $49 $160 $161 forward $10 $-1 #
coedge $-1 -1 $-1 $148 $147 $49 $98 reversed $149 $-1 #
edge $-1 -1 $-1 $102 0 $162 0.04705103420797378949 $49 $163 forward @7 unknown #
coedge $-1 -1 $-1 $164 $50 $56 $112 reversed $101 $-1 #
coedge $-1 -1 $-1 $50 $165 $148 $166 reversed $101 $-1 #
loop $-1 -1 $-1 $-1 $167 $168 #
vertex $-1 -1 $-1 $98 $169 #
ellipse-curve $-1 -1 $-1 -11.5 10 0.3573657226562432787 0.7071067811865553443 0 -0.7071067811865396902 1.149999999999999911 0 1.150000000000025446 0.7071067811865396902 I I #
coedge $-1 -1 $-1 $170 $171 $52 $105 reversed $172 $-1 #
edge $-1 -1 $-1 $173 0 $108 0.04858854344379204965 $52 $174 forward @7 unknown #
coedge $-1 -1 $-1 $126 $53 $171 $175 reversed $71 $-1 #
coedge $-1 -1 $-1 $53 $124 $55 $111 reversed $71 $-1 #
vertex $-1 -1 $-1 $54 $176 #
ellipse-curve $-1 -1 $-1 -11.5 10 0.3573657226562432787 -0.7071067811865553443 0 0.7071067811865396902 1.600000000000000089 0 1.600000000000035616 0.7071067811865396902 I I #
coedge $-1 -1 $-1 $56 $55 $177 $178 reversed $57 $-1 #
edge $-1 -1 $-1 $58 -1.386864560298787463 $179 4.544497776947211243 $55 $180 forward @7 unknown #
edge $-1 -1 $-1 $181 -4.477749939181752126 $59 1.313502299476442037 $99 $182 forward @7 unknown #
face $-1 -1 $-1 $127 $57 $4 $-1 $183 forward single #
point $-1 -1 $-1 -11.20736572265625064 8.426988499812063438 0.6499999999999999112 #
point $-1 -1 $-1 -11.20736572265625064 8.887855594033085893 0.6499999999999999112 #
coedge $-1 -1 $-1 $184 $61 $64 $120 reversed $92 $-1 #
straight-curve $-1 -1 $-1 -11.73736572265625 9.498589515686035156 0.3799999999999999489 0 -1 0 F -2.134411484313963214 F 1.173885530437669189 #
coedge $-1 -1 $-1 $185 $63 $186 $187 reversed $65 $-1 #
coedge $-1 -1 $-1 $64 $185 $188 $189 reversed $65 $-1 #
edge $-1 -1 $-1 $190 -0.1000000000000000888 $66 -0.07000000000000006217 $116 $191 forward @7 unknown #
face $-1 -1 $-1 $192 $193 $4 $-1 $194 forward single #
point $-1 -1 $-1 -11.73736572265625 9.028579641088434471 0.3799999999999999489 #
straight-curve $-1 -1 $-1 -11.73736572265625 8.447704985248364551 0.3799999999999999489 -0.6054842890311348258 -0.5165051320876968832 -0.6054842890311291637 F -0 F 0.04892778197597431877 #
coedge $-1 -1 $-1 $107 $69 $153 $195 reversed $71 $-1 #
edge $-1 -1 $-1 $154 -0.1496250032835930721 $72 0.1496250032835927946 $69 $196 forward @7 unknown #
coedge $-1 -1 $-1 $70 $106 $197 $198 reversed $71 $-1 #
face $-1 -1 $-1 $77 $71 $4 $-1 $199 forward single #
point $-1 -1 $-1 -11.76699072593984319 8.4224335347561059 0.3503749967164070389 #
coedge $-1 -1 $-1 $197 $186 $74 $130 forward $200 $-1 #
edge $-1 -1 $-1 $133 0.4548139557227361962 $131 1.071601015873971718 $74 $201 forward @7 unknown #
vertex $-1 -1 $-1 $130 $202 #
ellipse-curve $-1 -1 $-1 -11.5 10 0.3499999999999999778 0 0 -1 1.600000000000000089 0 0 1 I I #
vertex $-1 -1 $-1 $76 $203 #
ellipse-curve $-1 -1 $-1 -11.5 10 0.3499999999999999223 0 0 1 1 0 0 1 I I #
face $-1 -1 $-1 $204 $205 $4 $-1 $206 forward single #
plane-surface $-1 -1 $-1 -11.5 10 0.3499999999999999778 0 0 -1 1 0 0 forward_v I I I I #
face $-1 -1 $-1 $207 $208 $4 $-1 $209 forward single #
loop $-1 -1 $-1 $-1 $210 $80 #
plane-surface $-1 -1 $-1 -11.75200109025960771 8.893050602519004144 -0.05000000000000021094 0.6248399691604535899 -0.7807528501001860244 0 0 0 -1 forward_v I I I I #
coedge $-1 -1 $-1 $211 $212 $213 $214 reversed $81 $-1 #
coedge $-1 -1 $-1 $215 $83 $216 $217 forward $42 $-1 #
edge $-1 -1 $-1 $94 -1.050884530437670605 $218 -0.5938261635552173345 $91 $219 forward @7 unknown #
coedge $-1 -1 $-1 $220 $221 $84 $144 forward $222 $-1 #
edge $-1 -1 $-1 $223 -1.433120586393404894 $150 -1.377981889760185208 $143 $224 reversed @7 unknown #
coedge $-1 -1 $-1 $225 $226 $85 $146 forward $227 $-1 #
edge $-1 -1 $-1 $151 0 $223 0.04327227301775897483 $145 $228 forward @7 unknown #
coedge $-1 -1 $-1 $97 $86 $229 $230 forward $149 $-1 #
coedge $-1 -1 $-1 $86 $97 $100 $166 forward $149 $-1 #
loop $-1 -1 $-1 $-1 $148 $231 #
vertex $-1 -1 $-1 $232 $233 #
vertex $-1 -1 $-1 $234 $235 #
straight-curve $-1 -1 $-1 -11.20825039370219223 8.887623190090213399 0.9199999999999997069 -0.7877363067082909787 0.6160125900447013247 0 F 0 F 0.03696075540268269066 #
coedge $-1 -1 $-1 $89 $177 $124 $195 forward $42 $-1 #
vertex $-1 -1 $-1 $125 $236 #
straight-curve $-1 -1 $-1 -11.73736572265625 8.447704985248364551 0.6199999999999998845 -0.6054842890311344927 -0.5165051320876965502 0.6054842890311299408 F 0 F 0.04892778197597436041 #
coedge $-1 -1 $-1 $91 $237 $210 $238 reversed $92 $-1 #
face $-1 -1 $-1 $239 $92 $4 $-1 $240 forward single #
point $-1 -1 $-1 -11.73736572265625 8.447704985248364551 0.3799999999999999489 #
point $-1 -1 $-1 -11.73736572265625 8.447704985248364551 0.6199999999999998845 #
coedge $-1 -1 $-1 $229 $241 $96 $161 reversed $205 $-1 #
edge $-1 -1 $-1 $162 0.5881980349302065036 $173 1.046887091038708917 $160 $242 forward @7 unknown #
vertex $-1 -1 $-1 $161 $243 #
straight-curve $-1 -1 $-1 -11.20825039370219223 8.887623190090213399 0.6491153289540574356 -0.6188031664801019183 0.4839062743015473678 -0.6188031664800971443 F 0 F 0.04705103420797378949 #
coedge $-1 -1 $-1 $167 $99 $215 $244 reversed $101 $-1 #
coedge $-1 -1 $-1 $100 $167 $220 $232 reversed $101 $-1 #
edge $-1 -1 $-1 $102 0.699115328954057702 $150 0.9699999999999999734 $100 $245 forward @7 unknown #
coedge $-1 -1 $-1 $165 $164 $246 $247 reversed $101 $-1 #
face $-1 -1 $-1 $113 $101 $4 $-1 $248 forward single #
point $-1 -1 $-1 -11.20825039370219223 8.887623190090213399 0.6491153289540574356 #
coedge $-1 -1 $-1 $249 $104 $241 $250 forward $172 $-1 #
coedge $-1 -1 $-1 $104 $249 $106 $175 forward $172 $-1 #
loop $-1 -1 $-1 $-1 $171 $251 #
vertex $-1 -1 $-1 $161 $252 #
straight-curve $-1 -1 $-1 -11.23736572265625 8.451702424647326239 0.6199999999999998845 0.6080777639439385318 -0.5103752207874958646 0.6080777639439339799 F 0 F 0.04858854344379204965 #
edge $-1 -1 $-1 $253 -0.1495456128505936455 $108 0.1495456128505938675 $106 $254 forward @7 unknown #
point $-1 -1 $-1 -11.20782010980565602 8.426904036059458036 0.6495456128505936455 #
coedge $-1 -1 $-1 $153 $215 $110 $178 forward $42 $-1 #
edge $-1 -1 $-1 $181 0.6170775890907105321 $179 1.076092469834934562 $110 $255 forward @7 unknown #
vertex $-1 -1 $-1 $178 $256 #
ellipse-curve $-1 -1 $-1 -11.5 10 0.6499999999999999112 0 0 1 1.600000000000000089 0 0 1 I I #
vertex $-1 -1 $-1 $112 $257 #
ellipse-curve $-1 -1 $-1 -11.5 10 0.6499999999999999112 0 0 -1 1.149999999999999911 0 0 1 I I #
plane-surface $-1 -1 $-1 -11.5 10 0.6499999999999999112 0 0 1 -1 0 0 forward_v I I I I #
coedge $-1 -1 $-1 $258 $116 $259 $260 forward $92 $-1 #
coedge $-1 -1 $-1 $119 $118 $261 $262 forward $65 $-1 #
coedge $-1 -1 $-1 $129 $263 $118 $187 forward $200 $-1 #
edge $-1 -1 $-1 $264 -1.305045017276677655 $133 -1.273815772401851065 $186 $265 reversed @7 unknown #
coedge $-1 -1 $-1 $266 $259 $119 $189 forward $267 $-1 #
edge $-1 -1 $-1 $190 -1.810449496454084706 $268 -1.305045017276677877 $119 $134 forward @7 unknown #
vertex $-1 -1 $-1 $189 $269 #
straight-curve $-1 -1 $-1 -11.73736572265625 9.028579641088434471 0.4500000000000000111 0 0 1 I I #
face $-1 -1 $-1 $-1 $270 $4 $-1 $271 forward single #
loop $-1 -1 $-1 $65 $272 $121 #
cone-surface $-1 -1 $-1 -11.5 10 0.4500000000000000111 0 0 1 1 0 0 1 I I 0 1 1 forward I I I I #
edge $-1 -1 $-1 $179 -1.738687530232375433 $154 -1.73844981963727041 $124 $273 forward @7 unknown #
straight-curve $-1 -1 $-1 -11.76699072593984319 8.4224335347561059 0.4999999999999998335 0 0 -1 F -0.4781949010788357768 F 0.2294565394039920769 #
coedge $-1 -1 $-1 $274 $129 $126 $198 forward $200 $-1 #
edge $-1 -1 $-1 $131 1.386864560298787241 $253 1.387153417021850466 $126 $275 forward @7 unknown #
cone-surface $-1 -1 $-1 -11.5 10 0.4999999999999999445 0 0 -1 1.600000000000000089 0 0 1 I I 0 1 1.600000000000000089 forward I I I I #
loop $-1 -1 $-1 $-1 $263 $276 #
straight-curve $-1 -1 $-1 -11.20736572265625064 9.498589515686035156 0.3499999999999999778 -0 -1 -0 F -2.134411484313963214 F 1.169888091038707501 #
point $-1 -1 $-1 -11.20736572265625064 8.426988499812063438 0.3499999999999999778 #
point $-1 -1 $-1 -11.20736572265625064 9.04377555996329896 0.3499999999999999223 #
face $-1 -1 $-1 $157 $267 $4 $-1 $277 forward single #
loop $-1 -1 $-1 $-1 $278 $135 #
plane-surface $-1 -1 $-1 -11.23736572265625 8.997179031372070312 1.349999999999999867 -1 0 0 0 0 1 forward_v I I I I #
face $-1 -1 $-1 $279 $222 $4 $-1 $280 forward single #
loop $-1 -1 $-1 $-1 $281 $137 #
plane-surface $-1 -1 $-1 -11.75236572265625057 9.498589515686035156 0.9349999999999998312 0.7071067811865553443 0 0.7071067811865396902 0.7071067811865396902 0 -0.7071067811865553443 forward_v I I I I #
coedge $-1 -1 $-1 $282 $216 $156 $238 forward $138 $-1 #
coedge $-1 -1 $-1 $212 $140 $282 $283 reversed $81 $-1 #
coedge $-1 -1 $-1 $140 $211 $284 $285 reversed $81 $-1 #
coedge $-1 -1 $-1 $221 $220 $140 $214 forward $222 $-1 #
edge $-1 -1 $-1 $286 -0.05529250994260934832 $287 -0 $213 $288 reversed @7 unknown #
coedge $-1 -1 $-1 $177 $141 $164 $244 forward $42 $-1 #
coedge $-1 -1 $-1 $210 $246 $141 $217 reversed $138 $-1 #
edge $-1 -1 $-1 $218 0 $289 0.04756370352442336469 $141 $290 forward @7 unknown #
vertex $-1 -1 $-1 $142 $291 #
straight-curve $-1 -1 $-1 -11.73736572265625 9.498589515686035156 0.6199999999999998845 0 1 0 F -1.173885530437669189 F 2.134411484313963214 #
coedge $-1 -1 $-1 $213 $143 $165 $232 forward $222 $-1 #
coedge $-1 -1 $-1 $143 $213 $292 $293 forward $222 $-1 #
loop $-1 -1 $-1 $-1 $213 $207 #
vertex $-1 -1 $-1 $293 $294 #
intcurve-curve $-1 -1 $-1 forward { exactcur full nurbs 2 open 2 
	0 2 1.433120586393404894 2 
	-11.25929616146088463 7.893709027196741168 -0.04999999999999932276 1 
	-11.21801956079363194 8.526380563946721836 0.5738938256526484594 1.027029009358650269 
	-11.20736572265625419 8.918905563919828694 0.9499999999999997335 1 
	0 
	
	null_surface 
	null_surface 
	nullbs 
	nullbs 
	I I 
	0 
	0 
	0 
	F 1 F 0 } I I #
coedge $-1 -1 $-1 $295 $145 $296 $297 forward $227 $-1 #
coedge $-1 -1 $-1 $145 $298 $299 $234 forward $227 $-1 #
loop $-1 -1 $-1 $-1 $226 $300 #
straight-curve $-1 -1 $-1 -11.23736572265625 8.910391480755828653 0.9199999999999997069 0.6932845886715339745 0.1967560881423042474 0.6932845886715494066 F 0 F 0.04327227301775897483 #
coedge $-1 -1 $-1 $299 $160 $147 $230 reversed $205 $-1 #
edge $-1 -1 $-1 $151 -0.9699999999999999734 $162 -0.670000000000000151 $229 $301 forward @7 unknown #
face $-1 -1 $-1 $302 $149 $4 $-1 $303 forward single #
edge $-1 -1 $-1 $150 -4.455890334106423545 $286 1.336809244285454445 $165 $304 forward @7 unknown #
point $-1 -1 $-1 -11.20825039370219223 8.887623190090213399 0.9199999999999997069 #
edge $-1 -1 $-1 $305 0.2842503101991056269 $151 0.5881980349302065036 $299 $306 forward @7 unknown #
point $-1 -1 $-1 -11.23736572265625 8.910391480755828653 0.9199999999999997069 #
point $-1 -1 $-1 -11.76699072593984319 8.4224335347561059 0.6496250032835928501 #
coedge $-1 -1 $-1 $156 $258 $307 $308 reversed $92 $-1 #
edge $-1 -1 $-1 $218 0.670000000000000151 $309 0.9699999999999999734 $156 $310 forward @7 unknown #
face $-1 -1 $-1 $311 $312 $4 $-1 $313 reversed single #
plane-surface $-1 -1 $-1 -11.73736572265625 8.997179031372070312 1.349999999999999867 1 0 0 0 0 -1 forward_v I I I I #
coedge $-1 -1 $-1 $160 $314 $170 $250 reversed $205 $-1 #
straight-curve $-1 -1 $-1 -11.23736572265625 9.498589515686035156 0.6199999999999998845 0 -1 0 F -2.134411484313963214 F 1.169888091038707501 #
point $-1 -1 $-1 -11.23736572265625 8.910391480755828653 0.6199999999999998845 #
edge $-1 -1 $-1 $289 1.804783409304338671 $181 1.805435367997834772 $215 $315 forward @7 unknown #
straight-curve $-1 -1 $-1 -11.20825039370219223 8.887623190090213399 -0.05000000000000021094 0 0 1 F 0.3741067956359599433 F 1.025893204364040079 #
coedge $-1 -1 $-1 $216 $282 $167 $247 forward $138 $-1 #
edge $-1 -1 $-1 $286 -0.9699999999999999734 $289 -0.6992707352067135673 $167 $316 forward @7 unknown #
cone-surface $-1 -1 $-1 -11.5 10 -0.05000000000000021094 0 0 -1 1.149999999999999911 0 0 1 I I 0 1 1.149999999999999911 forward I I I I #
coedge $-1 -1 $-1 $171 $170 $274 $317 forward $172 $-1 #
edge $-1 -1 $-1 $173 -0.1200000000000001066 $318 0.1199999999999998845 $241 $319 forward @7 unknown #
face $-1 -1 $-1 $276 $172 $4 $-1 $320 forward single #
point $-1 -1 $-1 -11.23736572265625 8.451702424647326239 0.6199999999999998845 #
vertex $-1 -1 $-1 $175 $321 #
straight-curve $-1 -1 $-1 -11.20782010980565602 8.426904036059458036 0.4999999999999998335 0 0 1 F -0.2281907673220876509 F 0.4777457561465472402 #
straight-curve $-1 -1 $-1 -11.76736572265624936 9.498589515686035156 0.6499999999999999112 -0 -1 -0 F -2.134411484313963214 F 1.173885530437669189 #
point $-1 -1 $-1 -11.76736572265624936 8.422497045851100594 0.6499999999999999112 #
point $-1 -1 $-1 -11.76736572265624936 8.881511926595324624 0.6499999999999999112 #
coedge $-1 -1 $-1 $237 $184 $322 $323 reversed $92 $-1 #
coedge $-1 -1 $-1 $188 $324 $184 $260 reversed $267 $-1 #
edge $-1 -1 $-1 $190 0.03140060971636415843 $325 0.2088461564070840382 $184 $326 forward @7 unknown #
coedge $-1 -1 $-1 $314 $327 $185 $262 reversed $205 $-1 #
edge $-1 -1 $-1 $264 0.07000000000000006217 $268 0.1000000000000000888 $261 $328 forward @7 unknown #
coedge $-1 -1 $-1 $186 $274 $314 $329 forward $200 $-1 #
vertex $-1 -1 $-1 $262 $330 #
ellipse-curve $-1 -1 $-1 -11.5 10 0.6426342773437561107 -0.7071067811865547892 0 -0.7071067811865403563 1 0 -1.000000000000020428 0.7071067811865403563 I I #
coedge $-1 -1 $-1 $331 $188 $327 $332 reversed $267 $-1 #
loop $-1 -1 $-1 $-1 $333 $204 #
vertex $-1 -1 $-1 $189 $334 #
point $-1 -1 $-1 -11.73736572265625 9.028579641088434471 0.3499999999999999223 #
loop $-1 -1 $-1 $335 $336 $192 #
plane-surface $-1 -1 $-1 -11.5 10 1.387778780781445676e-17 0 0 -1 -1 0 0 forward_v I I I I #
coedge $-1 -1 $-1 $272 $272 $337 $338 reversed $193 $-1 #
ellipse-curve $-1 -1 $-1 -11.5 10 0.3826342773437438338 0.7071067811865553443 0 0.7071067811865396902 1.600000000000000089 0 -1.600000000000035616 0.7071067811865396902 I I #
coedge $-1 -1 $-1 $263 $197 $249 $317 reversed $200 $-1 #
ellipse-curve $-1 -1 $-1 -11.5 10 0.6426342773437561107 -0.7071067811865547892 0 -0.7071067811865403563 1.600000000000000089 0 -1.600000000000032951 0.7071067811865403563 I I #
face $-1 -1 $-1 $168 $200 $4 $-1 $339 forward single #
plane-surface $-1 -1 $-1 -11.48736572265625 8.997179031372070312 0.3499999999999999223 0 0 1 1 0 0 forward_v I I I I #
coedge $-1 -1 $-1 $327 $299 $340 $341 reversed $205 $-1 #
face $-1 -1 $-1 $300 $342 $4 $-1 $343 forward single #
cone-surface $-1 -1 $-1 -11.5 10 0.9349999999999998312 0 0 1 -1.135000000000000009 0 0 1 I I -0.7071067811865447972 0.7071067811865501263 1.135000000000000009 forward I I I I #
coedge $-1 -1 $-1 $284 $344 $345 $346 forward $208 $-1 #
coedge $-1 -1 $-1 $246 $210 $211 $283 forward $138 $-1 #
edge $-1 -1 $-1 $309 0 $286 0.03749039814962908113 $282 $347 forward @7 unknown #
coedge $-1 -1 $-1 $307 $281 $212 $285 forward $208 $-1 #
edge $-1 -1 $-1 $287 0 $309 0.04310481630730584462 $284 $348 forward @7 unknown #
vertex $-1 -1 $-1 $247 $349 #
vertex $-1 -1 $-1 $346 $350 #
intcurve-curve $-1 -1 $-1 forward { exactcur full nurbs 2 open 2 
	0 2 1.42935796697751516 2 
	-11.76736572265625114 8.912380778788595137 0.9499999999999990674 1 
	-11.75864804604337266 8.526078378809213376 0.5769472254373342324 1.029713860499587685 
	-11.72510354833486446 7.891984726685543627 -0.04999999999999987788 1 
	0 
	
	null_surface 
	null_surface 
	nullbs 
	nullbs 
	I I 
	0 
	0 
	0 
	F 1 F 0 } I I #
vertex $-1 -1 $-1 $217 $351 #
straight-curve $-1 -1 $-1 -11.73736572265625 8.904763352130817822 0.6199999999999998845 -0.6154006739967901041 -0.492507889163816992 0.6154006739967854411 F 0 F 0.04756370352442336469 #
point $-1 -1 $-1 -11.73736572265625 8.904763352130817822 0.6199999999999998845 #
coedge $-1 -1 $-1 $345 $296 $221 $293 reversed $352 $-1 #
edge $-1 -1 $-1 $287 -7.612934728287545028 $223 -1.83514498211580479 $292 $353 forward @7 unknown #
point $-1 -1 $-1 -11.20736572265625064 8.918905563919828694 0.9499999999999997335 #
coedge $-1 -1 $-1 $298 $225 $354 $355 forward $227 $-1 #
coedge $-1 -1 $-1 $292 $356 $225 $297 reversed $352 $-1 #
edge $-1 -1 $-1 $223 -0.5796839517662064623 $357 -0.2431465515963147084 $296 $358 forward @7 unknown #
coedge $-1 -1 $-1 $226 $295 $359 $360 forward $227 $-1 #
coedge $-1 -1 $-1 $278 $229 $226 $234 reversed $205 $-1 #
face $-1 -1 $-1 $231 $227 $4 $-1 $361 forward single #
straight-curve $-1 -1 $-1 -11.23736572265625 8.910391480755828653 -0.05000000000000021094 0 0 -1 F -1.025893204364040079 F -0.3741067956359599433 #
face $-1 -1 $-1 $251 $362 $4 $-1 $363 forward single #
plane-surface $-1 -1 $-1 -11.222808058179222 8.899007335423021914 -0.05000000000000021094 -0.6160125900447014358 -0.7877363067082910897 -0 0 0 1 forward_v I I I I #
ellipse-curve $-1 -1 $-1 -11.5 10 0.9199999999999997069 0 0 1 -1.149999999999999911 -0 -0 1 I I #
vertex $-1 -1 $-1 $234 $364 #
straight-curve $-1 -1 $-1 -11.23736572265625 9.498589515686035156 0.9199999999999997069 0 -1 0 F -1.684411484313963925 F 1.109888091038707003 #
coedge $-1 -1 $-1 $365 $284 $237 $308 forward $208 $-1 #
edge $-1 -1 $-1 $309 -0.5938261635552173345 $366 -0.2925643279068808056 $237 $367 forward @7 unknown #
vertex $-1 -1 $-1 $238 $368 #
straight-curve $-1 -1 $-1 -11.73736572265625 8.904763352130817822 -0.05000000000000021094 0 0 1 F 0.3735090927524030158 F 1.026490907247596951 #
face $-1 -1 $-1 $121 $352 $4 $-1 $369 forward single #
loop $-1 -1 $-1 $370 $371 $239 #
cone-surface $-1 -1 $-1 -11.5 10 0.4500000000000000111 0 0 -1 0.8000000000000000444 0 0 1 I I 0 1 0.8000000000000000444 forward I I I I #
coedge $-1 -1 $-1 $241 $261 $263 $329 reversed $205 $-1 #
ellipse-curve $-1 -1 $-1 -11.5 10 0.3826342773437437783 -0.7071067811865553443 0 -0.7071067811865396902 1.149999999999999911 0 -1.150000000000025446 0.7071067811865396902 I I #
straight-curve $-1 -1 $-1 -11.76663645786296364 8.881337852907190467 -0.05000000000000021094 0 0 -1 F -1.026490907247596951 F -0.3735090927524030158 #
edge $-1 -1 $-1 $318 0 $253 0.04858854344379204965 $249 $372 forward @7 unknown #
vertex $-1 -1 $-1 $250 $373 #
straight-curve $-1 -1 $-1 -11.23736572265625 8.451702424647326239 0.4999999999999998335 0 0 -1 F -0.4777457561465472402 F 0.2281907673220876509 #
plane-surface $-1 -1 $-1 -11.22259291623095301 8.439303230353392138 0.4999999999999998335 -0.6428891634368003594 -0.7659592179323460037 -0 0 0 1 forward_v I I I I #
point $-1 -1 $-1 -11.20782010980565602 8.426904036059458036 0.350454387149406188 #
coedge $-1 -1 $-1 $374 $375 $258 $323 forward $342 $-1 #
edge $-1 -1 $-1 $366 -0.4699999999999997513 $325 0.1000000000000000888 $258 $376 forward @7 unknown #
coedge $-1 -1 $-1 $259 $333 $374 $377 reversed $267 $-1 #
vertex $-1 -1 $-1 $260 $378 #
straight-curve $-1 -1 $-1 -11.73736572265625 8.997179031372070312 0.3499999999999999223 0 1 0 I I #
coedge $-1 -1 $-1 $261 $278 $266 $332 forward $205 $-1 #
straight-curve $-1 -1 $-1 -11.23736572265625 9.035104546407163539 0.4500000000000000111 -0 -0 -1 I I #
edge $-1 -1 $-1 $318 -1.046887091038708917 $264 -0.4634849692788716169 $314 $379 forward @7 unknown #
point $-1 -1 $-1 -11.23736572265625 9.035104546407163539 0.3799999999999999489 #
coedge $-1 -1 $-1 $333 $266 $380 $381 reversed $267 $-1 #
edge $-1 -1 $-1 $382 -0.2171601741148592168 $268 -0.03792551503509322686 $327 $383 forward @7 unknown #
coedge $-1 -1 $-1 $324 $331 $371 $384 reversed $267 $-1 #
point $-1 -1 $-1 -11.23736572265625 9.035104546407163539 0.3499999999999999223 #
loop $-1 -1 $-1 $-1 $337 $192 #
coedge $-1 -1 $-1 $336 $336 $385 $386 forward $270 $-1 #
coedge $-1 -1 $-1 $337 $337 $272 $338 forward $335 $-1 #
edge $-1 -1 $-1 $387 -3.141592653589793116 $387 3.141592653589793116 $337 $388 forward @7 unknown #
plane-surface $-1 -1 $-1 -11.22236572265624943 9.498589515686035156 0.3649999999999999356 -0.7071067811865547892 0 -0.7071067811865403563 -0.7071067811865403563 0 0.7071067811865547892 forward_v I I I I #
coedge $-1 -1 $-1 $359 $380 $278 $341 forward $362 $-1 #
edge $-1 -1 $-1 $382 -0.1000000000000000888 $305 0.4699999999999997513 $278 $389 forward @7 unknown #
loop $-1 -1 $-1 $-1 $322 $279 #
plane-surface $-1 -1 $-1 -11.75160428329378348 9.225743597571794297 0.4500000000000000111 0.8107282691638014738 0.5854226452561146488 0 0 0 -1 forward_v I I I I #
coedge $-1 -1 $-1 $281 $365 $390 $391 forward $208 $-1 #
coedge $-1 -1 $-1 $356 $292 $281 $346 reversed $352 $-1 #
edge $-1 -1 $-1 $392 0.2525892307711945506 $287 0.5862087368974400192 $345 $393 forward @7 unknown #
straight-curve $-1 -1 $-1 -11.73736572265625 8.904763352130817822 0.9199999999999997069 -0.7807528501001860244 -0.6248399691604535899 0 F 0 F 0.03749039814962908113 #
straight-curve $-1 -1 $-1 -11.76736572265624936 8.912380778788595137 0.9499999999999997335 0.6959779108237298395 -0.1767186897044318583 -0.6959779108237452716 F 0 F 0.04310481630730584462 #
point $-1 -1 $-1 -11.76663645786296364 8.881337852907190467 0.9199999999999997069 #
point $-1 -1 $-1 -11.76736572265624936 8.912380778788595137 0.9499999999999997335 #
point $-1 -1 $-1 -11.76663645786296364 8.881337852907190467 0.6492707352067133009 #
loop $-1 -1 $-1 $-1 $345 $311 #
ellipse-curve $-1 -1 $-1 -11.5 10 0.9499999999999997335 -0 -0 -1 -1.120000000000000107 0 0 1 I I #
coedge $-1 -1 $-1 $394 $395 $295 $355 reversed $312 $-1 #
edge $-1 -1 $-1 $357 1.196311780680857195 $396 1.198798445367911691 $354 $397 forward @7 unknown #
coedge $-1 -1 $-1 $296 $345 $394 $398 forward $352 $-1 #
vertex $-1 -1 $-1 $355 $399 #
straight-curve $-1 -1 $-1 -11.20736572265625064 9.498589515686035156 0.9499999999999997335 0 1 0 F -1.109888091038707003 F 1.684411484313963925 #
coedge $-1 -1 $-1 $400 $340 $298 $360 reversed $362 $-1 #
edge $-1 -1 $-1 $396 -0 $305 0.05670089902797959686 $298 $401 forward @7 unknown #
plane-surface $-1 -1 $-1 -11.22236572265624943 9.498589515686035156 0.9349999999999998312 -0.7071067811865553443 0 0.7071067811865396902 0.7071067811865396902 0 0.7071067811865553443 forward_v I I I I #
loop $-1 -1 $-1 $-1 $400 $302 #
plane-surface $-1 -1 $-1 -11.22329190592242654 9.234528394493198178 0.4500000000000000111 -0.8203492956513204204 0.571862774732175283 0 0 0 1 forward_v I I I I #
point $-1 -1 $-1 -11.23736572265625 9.214339205486929529 0.9199999999999997069 #
coedge $-1 -1 $-1 $344 $307 $375 $402 forward $208 $-1 #
vertex $-1 -1 $-1 $308 $403 #
straight-curve $-1 -1 $-1 -11.73736572265625 9.498589515686035156 0.9199999999999997069 0 1 0 F -1.113885530437668692 F 1.684411484313963925 #
point $-1 -1 $-1 -11.73736572265625 8.904763352130817822 0.9199999999999997069 #
plane-surface $-1 -1 $-1 -11.5 10 0.9499999999999997335 0 0 1 -1 0 0 forward_v I I I I #
loop $-1 -1 $-1 $-1 $385 $239 #
coedge $-1 -1 $-1 $395 $404 $333 $384 forward $312 $-1 #
straight-curve $-1 -1 $-1 -11.23736572265625 8.451702424647326239 0.3799999999999999489 0.6080777639439385318 -0.5103752207874958646 -0.6080777639439339799 F 0 F 0.04858854344379204965 #
point $-1 -1 $-1 -11.23736572265625 8.451702424647326239 0.3799999999999999489 #
coedge $-1 -1 $-1 $405 $322 $324 $377 forward $342 $-1 #
coedge $-1 -1 $-1 $322 $405 $365 $402 reversed $342 $-1 #
straight-curve $-1 -1 $-1 -11.73736572265625 9.206025187779154351 0.4500000000000000111 0 0 -1 F -0.6313533058855891333 F 0.5466098827335963417 #
edge $-1 -1 $-1 $325 0.1456756480722719016 $406 0.1943193442220998435 $374 $407 reversed @7 unknown #
point $-1 -1 $-1 -11.73736572265625 9.206025187779154351 0.3499999999999999223 #
straight-curve $-1 -1 $-1 -11.23736572265625 9.498589515686035156 0.3799999999999999489 0 1 0 F -1.169888091038707501 F 2.134411484313963214 #
coedge $-1 -1 $-1 $340 $400 $331 $381 forward $362 $-1 #
edge $-1 -1 $-1 $408 -0.1974721630851533349 $382 -0.1482512053460738055 $380 $409 reversed @7 unknown #
vertex $-1 -1 $-1 $332 $410 #
straight-curve $-1 -1 $-1 -11.23736572265625 8.997179031372070312 0.3499999999999999223 0 -1 0 I I #
edge $-1 -1 $-1 $406 -1.909541201890069262 $408 -1.198798445367911691 $371 $411 forward @7 unknown #
coedge $-1 -1 $-1 $385 $385 $336 $386 reversed $370 $-1 #
edge $-1 -1 $-1 $412 -3.141592653589793116 $412 3.141592653589793116 $336 $413 reversed @7 unknown #
vertex $-1 -1 $-1 $338 $414 #
ellipse-curve $-1 -1 $-1 -11.5 10 0 0 0 -1 1 0 0 1 I I #
straight-curve $-1 -1 $-1 -11.23736572265625 9.214339205486929529 0.4500000000000000111 0 0 1 F -0.5482929779495581135 F 0.63609657422148147 #
coedge $-1 -1 $-1 $404 $394 $344 $391 reversed $312 $-1 #
edge $-1 -1 $-1 $415 1.909541201890069262 $392 1.911560214341418762 $390 $416 forward @7 unknown #
vertex $-1 -1 $-1 $398 $417 #
straight-curve $-1 -1 $-1 -11.76736572265624936 9.498589515686035156 0.9499999999999997335 -0 -1 -0 F -1.684411484313963925 F 1.113885530437668692 #
coedge $-1 -1 $-1 $390 $354 $356 $398 reversed $312 $-1 #
coedge $-1 -1 $-1 $354 $371 $400 $418 reversed $312 $-1 #
vertex $-1 -1 $-1 $355 $419 #
ellipse-curve $-1 -1 $-1 -11.5 10 0.6573657226562430456 0.7071067811865553443 0 -0.7071067811865396902 0.8000000000000000444 0 0.800000000000017808 0.7071067811865396902 I I #
edge $-1 -1 $-1 $392 1.91156021434141854 $357 7.479497087860443649 $356 $420 forward @7 unknown #
point $-1 -1 $-1 -11.20736572265625064 9.255442964089720448 0.9499999999999997335 #
coedge $-1 -1 $-1 $380 $359 $395 $418 forward $362 $-1 #
straight-curve $-1 -1 $-1 -11.20921808918860485 9.254717583499466826 0.9481476334676446349 -0.4964230541345637793 -0.7121294142551813922 -0.496423054134559838 F -0 F 0.05670089902797959686 #
edge $-1 -1 $-1 $366 0 $415 0.05636626305895793554 $365 $421 forward @7 unknown #
point $-1 -1 $-1 -11.73736572265625 9.206025187779154351 0.9199999999999997069 #
coedge $-1 -1 $-1 $371 $390 $405 $422 reversed $312 $-1 #
coedge $-1 -1 $-1 $375 $374 $404 $422 forward $342 $-1 #
vertex $-1 -1 $-1 $384 $423 #
straight-curve $-1 -1 $-1 -11.6520838994123821 9.087921821758206065 0.3499999999999999223 0.5854226452561146488 -0.8107282691638014738 0 I I #
vertex $-1 -1 $-1 $384 $424 #
straight-curve $-1 -1 $-1 -11.32214506830284506 9.092721433601818504 0.3499999999999999223 0.571862774732175283 0.8203492956513204204 0 I I #
point $-1 -1 $-1 -11.23736572265625 9.214339205486929529 0.3499999999999999223 #
ellipse-curve $-1 -1 $-1 -11.5 10 0.3499999999999999223 0 0 1 0.8000000000000000444 0 0 1 I I #
vertex $-1 -1 $-1 $386 $425 #
ellipse-curve $-1 -1 $-1 -11.5 10 0 0 0 -1 0.8000000000000000444 0 0 1 I I #
point $-1 -1 $-1 -12.5 10 0 #
vertex $-1 -1 $-1 $391 $426 #
ellipse-curve $-1 -1 $-1 -11.5 10 0.6826342773437437117 -0.7071067811865553443 0 -0.7071067811865396902 0.8000000000000000444 0 -0.800000000000017808 0.7071067811865396902 I I #
point $-1 -1 $-1 -11.76736572265624936 9.246000284914840606 0.9499999999999997335 #
edge $-1 -1 $-1 $396 -0.4981476334676446793 $408 0.1000000000000000888 $395 $427 forward @7 unknown #
point $-1 -1 $-1 -11.20921808918860485 9.254717583499466826 0.9481476334676446349 #
ellipse-curve $-1 -1 $-1 -11.5 10 0.9499999999999997335 -0 -0 -1 0.8000000000000000444 0 0 1 I I #
straight-curve $-1 -1 $-1 -11.73736572265625 9.206025187779154351 0.9199999999999997069 -0.5052157040334657179 0.6996529030854822251 0.5052157040334617211 F 0 F 0.05636626305895793554 #
edge $-1 -1 $-1 $406 -0.1000000000000000888 $415 0.4984771212750664926 $404 $428 forward @7 unknown #
point $-1 -1 $-1 -11.76584284393131696 9.245462007364434243 0.3499999999999999223 #
point $-1 -1 $-1 -11.20921808918860485 9.254717583499466826 0.3499999999999999223 #
point $-1 -1 $-1 -12.30000000000000071 10 0 #
point $-1 -1 $-1 -11.76584284393131696 9.245462007364434243 0.9484771212750664482 #
straight-curve $-1 -1 $-1 -11.20921808918860485 9.254717583499466826 0.4500000000000000111 0 0 -1 F -0.63609657422148147 F 0.5482929779495581135 #
straight-curve $-1 -1 $-1 -11.76584284393131696 9.245462007364434243 0.4500000000000000111 0 0 1 F -0.5466098827335963417 F 0.6313533058855891333 #
End-of-ACIS-data 