solid ascii
  facet normal 7.071068e-01 -7.071068e-01 0.000000e+00
    outer loop
      vertex   -9.863052e+01 -1.693500e+02 1.708000e+02
      vertex   -9.863052e+01 -1.693500e+02 1.658000e+02
      vertex   -9.263052e+01 -1.633500e+02 1.708000e+02
    endloop
  endfacet
  facet normal 7.071068e-01 -7.071068e-01 0.000000e+00
    outer loop
      vertex   -9.263052e+01 -1.633500e+02 1.708000e+02
      vertex   -9.863052e+01 -1.693500e+02 1.658000e+02
      vertex   -9.263052e+01 -1.633500e+02 1.658000e+02
    endloop
  endfacet
  facet normal -0.000000e+00 -0.000000e+00 -1.000000e+00
    outer loop
      vertex   -9.263052e+01 -1.623500e+02 1.658000e+02
      vertex   -9.263052e+01 -1.633500e+02 1.658000e+02
      vertex   -1.259027e+02 -1.623500e+02 1.658000e+02
    endloop
  endfacet
  facet normal 0.000000e+00 0.000000e+00 -1.000000e+00
    outer loop
      vertex   -1.259027e+02 -1.623500e+02 1.658000e+02
      vertex   -9.263052e+01 -1.633500e+02 1.658000e+02
      vertex   -9.863052e+01 -1.693500e+02 1.658000e+02
    endloop
  endfacet
  facet normal 0.000000e+00 -0.000000e+00 -1.000000e+00
    outer loop
      vertex   -1.259027e+02 -1.623500e+02 1.658000e+02
      vertex   -9.863052e+01 -1.693500e+02 1.658000e+02
      vertex   -1.289027e+02 -1.693500e+02 1.658000e+02
    endloop
  endfacet
  facet normal 0.000000e+00 0.000000e+00 -1.000000e+00
    outer loop
      vertex   -1.591750e+02 -1.693500e+02 1.658000e+02
      vertex   -1.591750e+02 -1.623500e+02 1.658000e+02
      vertex   -1.289027e+02 -1.693500e+02 1.658000e+02
    endloop
  endfacet
  facet normal 0.000000e+00 0.000000e+00 -1.000000e+00
    outer loop
      vertex   -1.289027e+02 -1.693500e+02 1.658000e+02
      vertex   -1.591750e+02 -1.623500e+02 1.658000e+02
      vertex   -1.259027e+02 -1.623500e+02 1.658000e+02
    endloop
  endfacet
  facet normal 0.000000e+00 -1.000000e+00 0.000000e+00
    outer loop
      vertex   -9.863052e+01 -1.693500e+02 1.658000e+02
      vertex   -9.863052e+01 -1.693500e+02 1.708000e+02
      vertex   -1.289027e+02 -1.693500e+02 1.658000e+02
    endloop
  endfacet
  facet normal 0.000000e+00 -1.000000e+00 0.000000e+00
    outer loop
      vertex   -1.289027e+02 -1.693500e+02 1.658000e+02
      vertex   -9.863052e+01 -1.693500e+02 1.708000e+02
      vertex   -1.316305e+02 -1.693500e+02 1.708000e+02
    endloop
  endfacet
  facet normal 0.000000e+00 -1.000000e+00 0.000000e+00
    outer loop
      vertex   -1.289027e+02 -1.693500e+02 1.658000e+02
      vertex   -1.316305e+02 -1.693500e+02 1.708000e+02
      vertex   -1.591750e+02 -1.693500e+02 1.658000e+02
    endloop
  endfacet
  facet normal 0.000000e+00 -1.000000e+00 0.000000e+00
    outer loop
      vertex   -1.591750e+02 -1.693500e+02 1.658000e+02
      vertex   -1.316305e+02 -1.693500e+02 1.708000e+02
      vertex   -1.646305e+02 -1.693500e+02 1.708000e+02
    endloop
  endfacet
  facet normal -0.000000e+00 -1.000000e+00 0.000000e+00
    outer loop
      vertex   -1.591750e+02 -1.693500e+02 1.658000e+02
      vertex   -1.646305e+02 -1.693500e+02 1.708000e+02
      vertex   -1.646305e+02 -1.693500e+02 1.161443e+02
    endloop
  endfacet
  facet normal 0.000000e+00 -1.000000e+00 0.000000e+00
    outer loop
      vertex   -1.646305e+02 -1.693500e+02 6.148864e+01
      vertex   -1.591750e+02 -1.693500e+02 6.315533e+01
      vertex   -1.646305e+02 -1.693500e+02 1.161443e+02
    endloop
  endfacet
  facet normal 0.000000e+00 -1.000000e+00 0.000000e+00
    outer loop
      vertex   -1.646305e+02 -1.693500e+02 1.161443e+02
      vertex   -1.591750e+02 -1.693500e+02 6.315533e+01
      vertex   -1.591750e+02 -1.693500e+02 1.144777e+02
    endloop
  endfacet
  facet normal 0.000000e+00 -1.000000e+00 0.000000e+00
    outer loop
      vertex   -1.646305e+02 -1.693500e+02 1.161443e+02
      vertex   -1.591750e+02 -1.693500e+02 1.144777e+02
      vertex   -1.591750e+02 -1.693500e+02 1.658000e+02
    endloop
  endfacet
  facet normal 0.000000e+00 -1.000000e+00 -0.000000e+00
    outer loop
      vertex   -1.591750e+02 -1.693500e+02 6.315533e+01
      vertex   -1.646305e+02 -1.693500e+02 6.148864e+01
      vertex   -1.591750e+02 -1.693500e+02 1.183300e+01
    endloop
  endfacet
  facet normal -0.000000e+00 -1.000000e+00 0.000000e+00
    outer loop
      vertex   -1.591750e+02 -1.693500e+02 1.183300e+01
      vertex   -1.646305e+02 -1.693500e+02 6.148864e+01
      vertex   -1.646305e+02 -1.693500e+02 6.832975e+00
    endloop
  endfacet
  facet normal 0.000000e+00 -1.000000e+00 -0.000000e+00
    outer loop
      vertex   -1.591750e+02 -1.693500e+02 1.183300e+01
      vertex   -1.646305e+02 -1.693500e+02 6.832975e+00
      vertex   -1.316305e+02 -1.693500e+02 6.832975e+00
    endloop
  endfacet
  facet normal 0.000000e+00 -1.000000e+00 0.000000e+00
    outer loop
      vertex   -1.591750e+02 -1.693500e+02 1.183300e+01
      vertex   -1.316305e+02 -1.693500e+02 6.832975e+00
      vertex   -1.289027e+02 -1.693500e+02 1.183300e+01
    endloop
  endfacet
  facet normal 0.000000e+00 -1.000000e+00 -0.000000e+00
    outer loop
      vertex   -1.289027e+02 -1.693500e+02 1.183300e+01
      vertex   -1.316305e+02 -1.693500e+02 6.832975e+00
      vertex   -9.863052e+01 -1.693500e+02 6.832975e+00
    endloop
  endfacet
  facet normal 0.000000e+00 -1.000000e+00 0.000000e+00
    outer loop
      vertex   -1.289027e+02 -1.693500e+02 1.183300e+01
      vertex   -9.863052e+01 -1.693500e+02 6.832975e+00
      vertex   -9.863052e+01 -1.693500e+02 1.183300e+01
    endloop
  endfacet
  facet normal 7.071068e-01 -7.071068e-01 0.000000e+00
    outer loop
      vertex   -9.263052e+01 -1.633500e+02 6.832975e+00
      vertex   -9.263052e+01 -1.633500e+02 1.183300e+01
      vertex   -9.863052e+01 -1.693500e+02 6.832975e+00
    endloop
  endfacet
  facet normal 7.071068e-01 -7.071068e-01 0.000000e+00
    outer loop
      vertex   -9.863052e+01 -1.693500e+02 6.832975e+00
      vertex   -9.263052e+01 -1.633500e+02 1.183300e+01
      vertex   -9.863052e+01 -1.693500e+02 1.183300e+01
    endloop
  endfacet
  facet normal 0.000000e+00 0.000000e+00 1.000000e+00
    outer loop
      vertex   -1.289027e+02 -1.693500e+02 1.183300e+01
      vertex   -9.863052e+01 -1.693500e+02 1.183300e+01
      vertex   -1.259027e+02 -1.623500e+02 1.183300e+01
    endloop
  endfacet
  facet normal 0.000000e+00 0.000000e+00 1.000000e+00
    outer loop
      vertex   -1.259027e+02 -1.623500e+02 1.183300e+01
      vertex   -9.863052e+01 -1.693500e+02 1.183300e+01
      vertex   -9.263052e+01 -1.633500e+02 1.183300e+01
    endloop
  endfacet
  facet normal -0.000000e+00 0.000000e+00 1.000000e+00
    outer loop
      vertex   -1.259027e+02 -1.623500e+02 1.183300e+01
      vertex   -9.263052e+01 -1.633500e+02 1.183300e+01
      vertex   -9.263052e+01 -1.623500e+02 1.183300e+01
    endloop
  endfacet
  facet normal 0.000000e+00 0.000000e+00 1.000000e+00
    outer loop
      vertex   -1.259027e+02 -1.623500e+02 1.183300e+01
      vertex   -1.591750e+02 -1.623500e+02 1.183300e+01
      vertex   -1.289027e+02 -1.693500e+02 1.183300e+01
    endloop
  endfacet
  facet normal 0.000000e+00 0.000000e+00 1.000000e+00
    outer loop
      vertex   -1.289027e+02 -1.693500e+02 1.183300e+01
      vertex   -1.591750e+02 -1.623500e+02 1.183300e+01
      vertex   -1.591750e+02 -1.693500e+02 1.183300e+01
    endloop
  endfacet
  facet normal 1.000000e+00 -0.000000e+00 0.000000e+00
    outer loop
      vertex   -1.591750e+02 -1.693500e+02 1.658000e+02
      vertex   -1.591750e+02 -1.693500e+02 1.144777e+02
      vertex   -1.591750e+02 -1.623500e+02 1.658000e+02
    endloop
  endfacet
  facet normal 1.000000e+00 0.000000e+00 0.000000e+00
    outer loop
      vertex   -1.591750e+02 -1.623500e+02 1.658000e+02
      vertex   -1.591750e+02 -1.693500e+02 1.144777e+02
      vertex   -1.591750e+02 -1.623500e+02 1.144777e+02
    endloop
  endfacet
  facet normal 1.000000e+00 0.000000e+00 0.000000e+00
    outer loop
      vertex   -1.591750e+02 -1.623500e+02 1.144777e+02
      vertex   -1.591750e+02 -1.693500e+02 1.144777e+02
      vertex   -1.591750e+02 -1.693500e+02 6.315533e+01
    endloop
  endfacet
  facet normal 1.000000e+00 0.000000e+00 0.000000e+00
    outer loop
      vertex   -1.591750e+02 -1.623500e+02 1.144777e+02
      vertex   -1.591750e+02 -1.693500e+02 6.315533e+01
      vertex   -1.591750e+02 -1.623500e+02 6.315533e+01
    endloop
  endfacet
  facet normal 1.000000e+00 0.000000e+00 0.000000e+00
    outer loop
      vertex   -1.591750e+02 -1.623500e+02 6.315533e+01
      vertex   -1.591750e+02 -1.693500e+02 6.315533e+01
      vertex   -1.591750e+02 -1.693500e+02 1.183300e+01
    endloop
  endfacet
  facet normal 1.000000e+00 0.000000e+00 0.000000e+00
    outer loop
      vertex   -1.591750e+02 -1.623500e+02 6.315533e+01
      vertex   -1.591750e+02 -1.693500e+02 1.183300e+01
      vertex   -1.591750e+02 -1.623500e+02 1.183300e+01
    endloop
  endfacet
  facet normal 1.000000e+00 0.000000e+00 0.000000e+00
    outer loop
      vertex   -9.263052e+01 -1.633500e+02 6.832975e+00
      vertex   -9.263052e+01 -1.623500e+02 6.832975e+00
      vertex   -9.263052e+01 -1.633500e+02 1.183300e+01
    endloop
  endfacet
  facet normal 1.000000e+00 -0.000000e+00 0.000000e+00
    outer loop
      vertex   -9.263052e+01 -1.633500e+02 1.183300e+01
      vertex   -9.263052e+01 -1.623500e+02 6.832975e+00
      vertex   -9.263052e+01 -1.623500e+02 1.183300e+01
    endloop
  endfacet
  facet normal -7.071068e-01 -7.071068e-01 -0.000000e+00
    outer loop
      vertex   -1.756305e+02 -1.663500e+02 1.708000e+02
      vertex   -1.756305e+02 -1.663500e+02 1.161443e+02
      vertex   -1.656305e+02 -1.763500e+02 1.708000e+02
    endloop
  endfacet
  facet normal -7.071068e-01 -7.071068e-01 -0.000000e+00
    outer loop
      vertex   -1.656305e+02 -1.763500e+02 1.708000e+02
      vertex   -1.756305e+02 -1.663500e+02 1.161443e+02
      vertex   -1.656305e+02 -1.763500e+02 1.161443e+02
    endloop
  endfacet
  facet normal -7.071068e-01 -7.071068e-01 0.000000e+00
    outer loop
      vertex   -1.656305e+02 -1.763500e+02 1.161443e+02
      vertex   -1.756305e+02 -1.663500e+02 1.161443e+02
      vertex   -1.756305e+02 -1.663500e+02 6.148864e+01
    endloop
  endfacet
  facet normal -7.071068e-01 -7.071068e-01 -0.000000e+00
    outer loop
      vertex   -1.656305e+02 -1.763500e+02 1.161443e+02
      vertex   -1.756305e+02 -1.663500e+02 6.148864e+01
      vertex   -1.656305e+02 -1.763500e+02 6.148864e+01
    endloop
  endfacet
  facet normal -7.071068e-01 -7.071068e-01 0.000000e+00
    outer loop
      vertex   -1.656305e+02 -1.763500e+02 6.148864e+01
      vertex   -1.756305e+02 -1.663500e+02 6.148864e+01
      vertex   -1.756305e+02 -1.663500e+02 6.832975e+00
    endloop
  endfacet
  facet normal -7.071068e-01 -7.071068e-01 -0.000000e+00
    outer loop
      vertex   -1.656305e+02 -1.763500e+02 6.148864e+01
      vertex   -1.756305e+02 -1.663500e+02 6.832975e+00
      vertex   -1.656305e+02 -1.763500e+02 6.832975e+00
    endloop
  endfacet
  facet normal -0.000000e+00 -0.000000e+00 -1.000000e+00
    outer loop
      vertex   -9.263052e+01 -1.623500e+02 6.832975e+00
      vertex   -9.263052e+01 -1.633500e+02 6.832975e+00
      vertex   -1.341305e+02 -1.623500e+02 6.832975e+00
    endloop
  endfacet
  facet normal 0.000000e+00 0.000000e+00 -1.000000e+00
    outer loop
      vertex   -1.341305e+02 -1.623500e+02 6.832975e+00
      vertex   -9.263052e+01 -1.633500e+02 6.832975e+00
      vertex   -9.863052e+01 -1.693500e+02 6.832975e+00
    endloop
  endfacet
  facet normal 0.000000e+00 0.000000e+00 -1.000000e+00
    outer loop
      vertex   -1.341305e+02 -1.623500e+02 6.832975e+00
      vertex   -9.863052e+01 -1.693500e+02 6.832975e+00
      vertex   -1.316305e+02 -1.693500e+02 6.832975e+00
    endloop
  endfacet
  facet normal 0.000000e+00 0.000000e+00 -1.000000e+00
    outer loop
      vertex   -1.316305e+02 -1.693500e+02 6.832975e+00
      vertex   -1.646305e+02 -1.693500e+02 6.832975e+00
      vertex   -1.341305e+02 -1.623500e+02 6.832975e+00
    endloop
  endfacet
  facet normal -0.000000e+00 0.000000e+00 -1.000000e+00
    outer loop
      vertex   -1.341305e+02 -1.623500e+02 6.832975e+00
      vertex   -1.646305e+02 -1.693500e+02 6.832975e+00
      vertex   -1.756305e+02 -1.623500e+02 6.832975e+00
    endloop
  endfacet
  facet normal 0.000000e+00 0.000000e+00 -1.000000e+00
    outer loop
      vertex   -1.756305e+02 -1.623500e+02 6.832975e+00
      vertex   -1.646305e+02 -1.693500e+02 6.832975e+00
      vertex   -1.756305e+02 -1.663500e+02 6.832975e+00
    endloop
  endfacet
  facet normal 0.000000e+00 0.000000e+00 -1.000000e+00
    outer loop
      vertex   -1.756305e+02 -1.663500e+02 6.832975e+00
      vertex   -1.646305e+02 -1.693500e+02 6.832975e+00
      vertex   -1.656305e+02 -1.763500e+02 6.832975e+00
    endloop
  endfacet
  facet normal 0.000000e+00 0.000000e+00 -1.000000e+00
    outer loop
      vertex   -1.656305e+02 -1.763500e+02 6.832975e+00
      vertex   -1.646305e+02 -1.693500e+02 6.832975e+00
      vertex   -1.646305e+02 -1.763500e+02 6.832975e+00
    endloop
  endfacet
  facet normal 0.000000e+00 -1.000000e+00 0.000000e+00
    outer loop
      vertex   -1.656305e+02 -1.763500e+02 1.708000e+02
      vertex   -1.656305e+02 -1.763500e+02 1.161443e+02
      vertex   -1.646305e+02 -1.763500e+02 1.708000e+02
    endloop
  endfacet
  facet normal 0.000000e+00 -1.000000e+00 -0.000000e+00
    outer loop
      vertex   -1.646305e+02 -1.763500e+02 1.708000e+02
      vertex   -1.656305e+02 -1.763500e+02 1.161443e+02
      vertex   -1.646305e+02 -1.763500e+02 1.161443e+02
    endloop
  endfacet
  facet normal -0.000000e+00 -1.000000e+00 0.000000e+00
    outer loop
      vertex   -1.646305e+02 -1.763500e+02 1.161443e+02
      vertex   -1.656305e+02 -1.763500e+02 1.161443e+02
      vertex   -1.656305e+02 -1.763500e+02 6.148864e+01
    endloop
  endfacet
  facet normal 0.000000e+00 -1.000000e+00 -0.000000e+00
    outer loop
      vertex   -1.646305e+02 -1.763500e+02 1.161443e+02
      vertex   -1.656305e+02 -1.763500e+02 6.148864e+01
      vertex   -1.646305e+02 -1.763500e+02 6.148864e+01
    endloop
  endfacet
  facet normal -0.000000e+00 -1.000000e+00 0.000000e+00
    outer loop
      vertex   -1.646305e+02 -1.763500e+02 6.148864e+01
      vertex   -1.656305e+02 -1.763500e+02 6.148864e+01
      vertex   -1.656305e+02 -1.763500e+02 6.832975e+00
    endloop
  endfacet
  facet normal 0.000000e+00 -1.000000e+00 -0.000000e+00
    outer loop
      vertex   -1.646305e+02 -1.763500e+02 6.148864e+01
      vertex   -1.656305e+02 -1.763500e+02 6.832975e+00
      vertex   -1.646305e+02 -1.763500e+02 6.832975e+00
    endloop
  endfacet
  facet normal -1.000000e+00 0.000000e+00 0.000000e+00
    outer loop
      vertex   -1.756305e+02 -1.623500e+02 6.832975e+00
      vertex   -1.756305e+02 -1.663500e+02 6.832975e+00
      vertex   -1.756305e+02 -1.623500e+02 6.148864e+01
    endloop
  endfacet
  facet normal -1.000000e+00 -0.000000e+00 0.000000e+00
    outer loop
      vertex   -1.756305e+02 -1.623500e+02 6.148864e+01
      vertex   -1.756305e+02 -1.663500e+02 6.832975e+00
      vertex   -1.756305e+02 -1.663500e+02 6.148864e+01
    endloop
  endfacet
  facet normal -1.000000e+00 0.000000e+00 0.000000e+00
    outer loop
      vertex   -1.756305e+02 -1.623500e+02 6.148864e+01
      vertex   -1.756305e+02 -1.663500e+02 6.148864e+01
      vertex   -1.756305e+02 -1.623500e+02 1.161443e+02
    endloop
  endfacet
  facet normal -1.000000e+00 -0.000000e+00 0.000000e+00
    outer loop
      vertex   -1.756305e+02 -1.623500e+02 1.161443e+02
      vertex   -1.756305e+02 -1.663500e+02 6.148864e+01
      vertex   -1.756305e+02 -1.663500e+02 1.161443e+02
    endloop
  endfacet
  facet normal -1.000000e+00 0.000000e+00 0.000000e+00
    outer loop
      vertex   -1.756305e+02 -1.623500e+02 1.161443e+02
      vertex   -1.756305e+02 -1.663500e+02 1.161443e+02
      vertex   -1.756305e+02 -1.623500e+02 1.708000e+02
    endloop
  endfacet
  facet normal -1.000000e+00 -0.000000e+00 0.000000e+00
    outer loop
      vertex   -1.756305e+02 -1.623500e+02 1.708000e+02
      vertex   -1.756305e+02 -1.663500e+02 1.161443e+02
      vertex   -1.756305e+02 -1.663500e+02 1.708000e+02
    endloop
  endfacet
  facet normal 1.000000e+00 0.000000e+00 0.000000e+00
    outer loop
      vertex   -1.646305e+02 -1.693500e+02 1.708000e+02
      vertex   -1.646305e+02 -1.763500e+02 1.708000e+02
      vertex   -1.646305e+02 -1.693500e+02 1.161443e+02
    endloop
  endfacet
  facet normal 1.000000e+00 0.000000e+00 0.000000e+00
    outer loop
      vertex   -1.646305e+02 -1.693500e+02 1.161443e+02
      vertex   -1.646305e+02 -1.763500e+02 1.708000e+02
      vertex   -1.646305e+02 -1.763500e+02 1.161443e+02
    endloop
  endfacet
  facet normal 1.000000e+00 0.000000e+00 0.000000e+00
    outer loop
      vertex   -1.646305e+02 -1.693500e+02 1.161443e+02
      vertex   -1.646305e+02 -1.763500e+02 1.161443e+02
      vertex   -1.646305e+02 -1.693500e+02 6.148864e+01
    endloop
  endfacet
  facet normal 1.000000e+00 0.000000e+00 0.000000e+00
    outer loop
      vertex   -1.646305e+02 -1.693500e+02 6.148864e+01
      vertex   -1.646305e+02 -1.763500e+02 1.161443e+02
      vertex   -1.646305e+02 -1.763500e+02 6.148864e+01
    endloop
  endfacet
  facet normal 1.000000e+00 0.000000e+00 0.000000e+00
    outer loop
      vertex   -1.646305e+02 -1.693500e+02 6.148864e+01
      vertex   -1.646305e+02 -1.763500e+02 6.148864e+01
      vertex   -1.646305e+02 -1.693500e+02 6.832975e+00
    endloop
  endfacet
  facet normal 1.000000e+00 0.000000e+00 0.000000e+00
    outer loop
      vertex   -1.646305e+02 -1.693500e+02 6.832975e+00
      vertex   -1.646305e+02 -1.763500e+02 6.148864e+01
      vertex   -1.646305e+02 -1.763500e+02 6.832975e+00
    endloop
  endfacet
  facet normal 0.000000e+00 -0.000000e+00 1.000000e+00
    outer loop
      vertex   -1.316305e+02 -1.693500e+02 1.708000e+02
      vertex   -9.863052e+01 -1.693500e+02 1.708000e+02
      vertex   -1.341305e+02 -1.623500e+02 1.708000e+02
    endloop
  endfacet
  facet normal 0.000000e+00 0.000000e+00 1.000000e+00
    outer loop
      vertex   -1.341305e+02 -1.623500e+02 1.708000e+02
      vertex   -9.863052e+01 -1.693500e+02 1.708000e+02
      vertex   -9.263052e+01 -1.633500e+02 1.708000e+02
    endloop
  endfacet
  facet normal -0.000000e+00 0.000000e+00 1.000000e+00
    outer loop
      vertex   -1.341305e+02 -1.623500e+02 1.708000e+02
      vertex   -9.263052e+01 -1.633500e+02 1.708000e+02
      vertex   -9.263052e+01 -1.623500e+02 1.708000e+02
    endloop
  endfacet
  facet normal 0.000000e+00 0.000000e+00 1.000000e+00
    outer loop
      vertex   -1.316305e+02 -1.693500e+02 1.708000e+02
      vertex   -1.341305e+02 -1.623500e+02 1.708000e+02
      vertex   -1.646305e+02 -1.693500e+02 1.708000e+02
    endloop
  endfacet
  facet normal 0.000000e+00 -0.000000e+00 1.000000e+00
    outer loop
      vertex   -1.646305e+02 -1.693500e+02 1.708000e+02
      vertex   -1.341305e+02 -1.623500e+02 1.708000e+02
      vertex   -1.756305e+02 -1.623500e+02 1.708000e+02
    endloop
  endfacet
  facet normal 0.000000e+00 0.000000e+00 1.000000e+00
    outer loop
      vertex   -1.646305e+02 -1.693500e+02 1.708000e+02
      vertex   -1.756305e+02 -1.623500e+02 1.708000e+02
      vertex   -1.756305e+02 -1.663500e+02 1.708000e+02
    endloop
  endfacet
  facet normal 0.000000e+00 0.000000e+00 1.000000e+00
    outer loop
      vertex   -1.756305e+02 -1.663500e+02 1.708000e+02
      vertex   -1.656305e+02 -1.763500e+02 1.708000e+02
      vertex   -1.646305e+02 -1.693500e+02 1.708000e+02
    endloop
  endfacet
  facet normal 0.000000e+00 0.000000e+00 1.000000e+00
    outer loop
      vertex   -1.646305e+02 -1.693500e+02 1.708000e+02
      vertex   -1.656305e+02 -1.763500e+02 1.708000e+02
      vertex   -1.646305e+02 -1.763500e+02 1.708000e+02
    endloop
  endfacet
  facet normal 1.000000e+00 0.000000e+00 0.000000e+00
    outer loop
      vertex   -9.263052e+01 -1.633500e+02 1.658000e+02
      vertex   -9.263052e+01 -1.623500e+02 1.658000e+02
      vertex   -9.263052e+01 -1.633500e+02 1.708000e+02
    endloop
  endfacet
  facet normal 1.000000e+00 -0.000000e+00 0.000000e+00
    outer loop
      vertex   -9.263052e+01 -1.633500e+02 1.708000e+02
      vertex   -9.263052e+01 -1.623500e+02 1.658000e+02
      vertex   -9.263052e+01 -1.623500e+02 1.708000e+02
    endloop
  endfacet
  facet normal 0.000000e+00 1.000000e+00 -0.000000e+00
    outer loop
      vertex   -9.263052e+01 -1.623500e+02 1.658000e+02
      vertex   -1.259027e+02 -1.623500e+02 1.658000e+02
      vertex   -9.263052e+01 -1.623500e+02 1.708000e+02
    endloop
  endfacet
  facet normal 0.000000e+00 1.000000e+00 0.000000e+00
    outer loop
      vertex   -9.263052e+01 -1.623500e+02 1.708000e+02
      vertex   -1.259027e+02 -1.623500e+02 1.658000e+02
      vertex   -1.341305e+02 -1.623500e+02 1.708000e+02
    endloop
  endfacet
  facet normal 0.000000e+00 1.000000e+00 0.000000e+00
    outer loop
      vertex   -1.341305e+02 -1.623500e+02 1.708000e+02
      vertex   -1.259027e+02 -1.623500e+02 1.658000e+02
      vertex   -1.591750e+02 -1.623500e+02 1.658000e+02
    endloop
  endfacet
  facet normal 0.000000e+00 1.000000e+00 0.000000e+00
    outer loop
      vertex   -1.341305e+02 -1.623500e+02 1.708000e+02
      vertex   -1.591750e+02 -1.623500e+02 1.658000e+02
      vertex   -1.756305e+02 -1.623500e+02 1.708000e+02
    endloop
  endfacet
  facet normal 0.000000e+00 1.000000e+00 0.000000e+00
    outer loop
      vertex   -1.756305e+02 -1.623500e+02 1.708000e+02
      vertex   -1.591750e+02 -1.623500e+02 1.658000e+02
      vertex   -1.756305e+02 -1.623500e+02 1.161443e+02
    endloop
  endfacet
  facet normal -0.000000e+00 1.000000e+00 0.000000e+00
    outer loop
      vertex   -1.756305e+02 -1.623500e+02 1.161443e+02
      vertex   -1.591750e+02 -1.623500e+02 1.658000e+02
      vertex   -1.591750e+02 -1.623500e+02 1.144777e+02
    endloop
  endfacet
  facet normal 0.000000e+00 1.000000e+00 0.000000e+00
    outer loop
      vertex   -1.756305e+02 -1.623500e+02 1.161443e+02
      vertex   -1.591750e+02 -1.623500e+02 1.144777e+02
      vertex   -1.591750e+02 -1.623500e+02 6.315533e+01
    endloop
  endfacet
  facet normal 0.000000e+00 1.000000e+00 0.000000e+00
    outer loop
      vertex   -1.756305e+02 -1.623500e+02 1.161443e+02
      vertex   -1.591750e+02 -1.623500e+02 6.315533e+01
      vertex   -1.756305e+02 -1.623500e+02 6.148864e+01
    endloop
  endfacet
  facet normal -0.000000e+00 1.000000e+00 0.000000e+00
    outer loop
      vertex   -1.756305e+02 -1.623500e+02 6.148864e+01
      vertex   -1.591750e+02 -1.623500e+02 6.315533e+01
      vertex   -1.591750e+02 -1.623500e+02 1.183300e+01
    endloop
  endfacet
  facet normal 0.000000e+00 1.000000e+00 0.000000e+00
    outer loop
      vertex   -1.756305e+02 -1.623500e+02 6.148864e+01
      vertex   -1.591750e+02 -1.623500e+02 1.183300e+01
      vertex   -1.756305e+02 -1.623500e+02 6.832975e+00
    endloop
  endfacet
  facet normal 0.000000e+00 1.000000e+00 0.000000e+00
    outer loop
      vertex   -1.756305e+02 -1.623500e+02 6.832975e+00
      vertex   -1.591750e+02 -1.623500e+02 1.183300e+01
      vertex   -1.341305e+02 -1.623500e+02 6.832975e+00
    endloop
  endfacet
  facet normal 0.000000e+00 1.000000e+00 -0.000000e+00
    outer loop
      vertex   -1.341305e+02 -1.623500e+02 6.832975e+00
      vertex   -1.591750e+02 -1.623500e+02 1.183300e+01
      vertex   -1.259027e+02 -1.623500e+02 1.183300e+01
    endloop
  endfacet
  facet normal 0.000000e+00 1.000000e+00 0.000000e+00
    outer loop
      vertex   -1.341305e+02 -1.623500e+02 6.832975e+00
      vertex   -1.259027e+02 -1.623500e+02 1.183300e+01
      vertex   -9.263052e+01 -1.623500e+02 6.832975e+00
    endloop
  endfacet
  facet normal 0.000000e+00 1.000000e+00 -0.000000e+00
    outer loop
      vertex   -9.263052e+01 -1.623500e+02 6.832975e+00
      vertex   -1.259027e+02 -1.623500e+02 1.183300e+01
      vertex   -9.263052e+01 -1.623500e+02 1.183300e+01
    endloop
  endfacet
endsolid
